# xmcd
#
# Track frame offsets:
# 150
# 24581
# 44223
# 66732
# 85825
# 102135
# 122483
# 140041
# 157891
# 181064
# 202276
# 222657
# 241569
# 260912
# 275688
#
# Disc length: 3983 seconds
#
#
# Revision: 0
# Processed by: cddbd v1.5PL3 Copyright (c) Steve Scherf et al.
# Submitted via: FreeRIP 2.53 
#
DISCID=eb0f8d0f
DTITLE=McGraw, Tim - Tim McGraw and The Dancehall Doctors
DYEAR=1900
DGENRE=Country
TTITLE0=Comfort Me
TTITLE1=Tickin' Away
TTITLE2=Home
TTITLE3=Red Rag Top
TTITLE4=That's Why God Made Mexico
TTITLE5=Watch The Wind Blow By
TTITLE6=Illegal
TTITLE7=Sleep On It Tonight
TTITLE8=I Know How To Love You Well
TTITLE9=Sing Me Home
TTITLE10=She's My Kind Of Rain
TTITLE11=Who Are They
TTITLE12=Real Good Man
TTITLE13=All We Ever Find
TTITLE14=Tiny Dancer
EXTD=
EXTT0=
EXTT1=
EXTT2=
EXTT3=
EXTT4=
EXTT5=
EXTT6=
EXTT7=
EXTT8=
EXTT9=
EXTT10=
EXTT11=
EXTT12=
EXTT13=
EXTT14=
PLAYORDER=
